<svg xmlns="http://www.w3.org/2000/svg" viewBox="0 0 400 400" width="800" height="800">
  <defs><pattern id="g" width="20" height="20" patternUnits="userSpaceOnUse"><path d="M20 0H0V20" fill="none" stroke="rgba(42,28,20,0.07)" stroke-width="1"/></pattern></defs>
  <rect width="400" height="400" fill="#EFE6D5"/><rect width="400" height="400" fill="url(#g)"/>
  <style>.i{fill:none;stroke:#2A1C14;stroke-width:2;stroke-linecap:round;stroke-linejoin:round}
  .d line{stroke:#7A3E22;stroke-width:1}.d text,.t{font-family:'Courier New',monospace;font-size:11px;fill:#7A3E22;letter-spacing:.06em}
  .h{font-family:Georgia,serif;font-size:15px;fill:#2A1C14}</style>
  <g class="i"><rect x="64" y="150" width="272" height="62" rx="2" fill="rgba(122,62,34,0.08)"/><line x1="155" y1="150" x2="155" y2="212" /><line x1="245" y1="150" x2="245" y2="212" /><rect x="64" y="212" width="272" height="38" rx="2" fill="rgba(122,62,34,0.08)"/><line x1="155" y1="212" x2="155" y2="250" /><line x1="245" y1="212" x2="245" y2="250" /><rect x="46" y="176" width="18" height="90" rx="2" /><rect x="336" y="176" width="18" height="90" rx="2" /><rect x="52" y="250" width="296" height="12" rx="2" /><path d="M60 262 L68 262 L65 318 L63 318 Z" /><path d="M332 262 L340 262 L337 318 L335 318 Z" /><line x1="24" y1="318" x2="376" y2="318" stroke-width="1.2"/></g>
  <g class="d"><line x1="46" y1="120" x2="354" y2="120" /><line x1="46" y1="114" x2="46" y2="126" /><line x1="354" y1="114" x2="354" y2="126" />
    <text x="200" y="112" text-anchor="middle">1850</text></g><g class="d"><line x1="372" y1="150" x2="372" y2="318" /><line x1="366" y1="150" x2="378" y2="150" /><line x1="366" y1="318" x2="378" y2="318" />
    <text transform="translate(386 234) rotate(-90)" text-anchor="middle">780</text></g>
  <g transform="translate(24 342)"><rect width="352" height="36" fill="none" stroke="#2A1C14" stroke-width="1"/>
  <line x1="226" y1="0" x2="226" y2="36" stroke="#2A1C14" stroke-width="1"/>
  <text class="h" x="12" y="23">Three-seater</text><text class="t" x="236" y="15">MHURI · No. 01</text><text class="t" x="236" y="29">SCALE 1:20 · MM</text></g>
</svg>